<mxfile host="65bd71144e">
    <diagram id="gs_aqv-OHQQpfsx8gcdm" name="Page-1">
        <mxGraphModel dx="892" dy="717" grid="1" gridSize="10" guides="1" tooltips="1" connect="1" arrows="1" fold="1" page="1" pageScale="1" pageWidth="827" pageHeight="1169" math="0" shadow="0">
            <root>
                <mxCell id="0"/>
                <mxCell id="1" parent="0"/>
                <mxCell id="15" style="edgeStyle=none;html=1;entryX=0.563;entryY=-0.022;entryDx=0;entryDy=0;exitX=0;exitY=0.5;exitDx=0;exitDy=0;entryPerimeter=0;" edge="1" parent="1" source="5" target="11">
                    <mxGeometry relative="1" as="geometry">
                        <Array as="points">
                            <mxPoint x="188" y="85"/>
                        </Array>
                    </mxGeometry>
                </mxCell>
                <mxCell id="5" value="User" style="ellipse;whiteSpace=wrap;html=1;" parent="1" vertex="1">
                    <mxGeometry x="310" y="50" width="140" height="70" as="geometry"/>
                </mxCell>
                <mxCell id="9" value="&lt;span&gt;DB&lt;/span&gt;" style="shape=cylinder3;whiteSpace=wrap;html=1;boundedLbl=1;backgroundOutline=1;size=15;" vertex="1" parent="1">
                    <mxGeometry x="600" y="520" width="60" height="80" as="geometry"/>
                </mxCell>
                <mxCell id="11" value="&lt;span&gt;Interface graphique&lt;/span&gt;" style="rounded=1;whiteSpace=wrap;html=1;" vertex="1" parent="1">
                    <mxGeometry x="120" y="240" width="120" height="60" as="geometry"/>
                </mxCell>
                <mxCell id="12" value="&lt;span&gt;Bot&lt;/span&gt;" style="rounded=1;whiteSpace=wrap;html=1;" vertex="1" parent="1">
                    <mxGeometry x="320" y="400" width="120" height="60" as="geometry"/>
                </mxCell>
                <mxCell id="13" value="&lt;span&gt;Interface Console&lt;/span&gt;" style="rounded=1;whiteSpace=wrap;html=1;" vertex="1" parent="1">
                    <mxGeometry x="520" y="240" width="120" height="60" as="geometry"/>
                </mxCell>
                <mxCell id="23" value="" style="endArrow=block;startArrow=block;endFill=1;startFill=1;html=1;entryX=0;entryY=0.5;entryDx=0;entryDy=0;entryPerimeter=0;exitX=0.5;exitY=1;exitDx=0;exitDy=0;" edge="1" parent="1" source="12" target="9">
                    <mxGeometry width="160" relative="1" as="geometry">
                        <mxPoint x="430" y="460" as="sourcePoint"/>
                        <mxPoint x="590" y="460" as="targetPoint"/>
                        <Array as="points">
                            <mxPoint x="380" y="560"/>
                        </Array>
                    </mxGeometry>
                </mxCell>
                <mxCell id="24" value="" style="endArrow=block;startArrow=block;endFill=1;startFill=1;html=1;exitX=0.576;exitY=1.047;exitDx=0;exitDy=0;exitPerimeter=0;" edge="1" parent="1" source="11">
                    <mxGeometry width="160" relative="1" as="geometry">
                        <mxPoint x="160" y="429.5" as="sourcePoint"/>
                        <mxPoint x="320" y="429.5" as="targetPoint"/>
                        <Array as="points">
                            <mxPoint x="189" y="430"/>
                        </Array>
                    </mxGeometry>
                </mxCell>
                <mxCell id="25" value="" style="html=1;verticalAlign=bottom;endArrow=block;entryX=0.5;entryY=0;entryDx=0;entryDy=0;exitX=1;exitY=0.5;exitDx=0;exitDy=0;" edge="1" parent="1" source="5" target="13">
                    <mxGeometry width="80" relative="1" as="geometry">
                        <mxPoint x="450" y="84.5" as="sourcePoint"/>
                        <mxPoint x="530" y="84.5" as="targetPoint"/>
                        <Array as="points">
                            <mxPoint x="580" y="85"/>
                        </Array>
                    </mxGeometry>
                </mxCell>
                <mxCell id="26" value="" style="endArrow=block;startArrow=block;endFill=1;startFill=1;html=1;entryX=0.5;entryY=1;entryDx=0;entryDy=0;exitX=1;exitY=0.5;exitDx=0;exitDy=0;" edge="1" parent="1" source="12" target="13">
                    <mxGeometry width="160" relative="1" as="geometry">
                        <mxPoint x="414" y="310" as="sourcePoint"/>
                        <mxPoint x="574" y="310" as="targetPoint"/>
                        <Array as="points">
                            <mxPoint x="580" y="430"/>
                        </Array>
                    </mxGeometry>
                </mxCell>
                <mxCell id="27" value="L'utilisateur a accès à l'application soit par une &lt;br style=&quot;font-size: 14px;&quot;&gt;interface graphique soit par une interface console.&lt;br style=&quot;font-size: 14px;&quot;&gt;Les interfaces peuvent toutes les deux communiquer &lt;br style=&quot;font-size: 14px;&quot;&gt;l'information au Bot, lui-même en relation avec une &lt;br style=&quot;font-size: 14px;&quot;&gt;base de données.&lt;br style=&quot;font-size: 14px;&quot;&gt;Le Bot envoie la réponse soit sur l'interface graphique &lt;br style=&quot;font-size: 14px;&quot;&gt;soit sur l'interface console." style="text;html=1;align=left;verticalAlign=middle;resizable=0;points=[];autosize=1;strokeColor=none;fontStyle=2;fontSize=14;" vertex="1" parent="1">
                    <mxGeometry x="80" y="600" width="350" height="120" as="geometry"/>
                </mxCell>
            </root>
        </mxGraphModel>
    </diagram>
</mxfile>